<!--?xml version="1.0" standalone="no"?-->
              <svg id="sw-js-blob-svg" viewBox="0 0 100 100" xmlns="http://www.w3.org/2000/svg" version="1.1">
                    <defs> 
                        <linearGradient id="sw-gradient" x1="0" x2="1" y1="1" y2="0">
                            <stop id="stop1" stop-color="rgba(0, 164.301, 255, 1)" offset="0%"></stop>
                            <stop id="stop2" stop-color="rgba(94.838, 0, 255, 1)" offset="100%"></stop>
                        </linearGradient>
                    </defs>
                <path fill="url(#sw-gradient)" d="M27.8,-28.9C35.6,-26.5,41.3,-17.4,38.4,-10.3C35.4,-3.2,23.9,2,17.6,7.7C11.3,13.4,10.4,19.7,6.3,24C2.3,28.3,-4.8,30.6,-8.4,27.4C-12,24.3,-12,15.6,-17.3,8.8C-22.6,2,-33.3,-2.9,-35.6,-9.2C-37.9,-15.5,-31.9,-23.2,-24.6,-25.7C-17.3,-28.1,-8.6,-25.4,0.7,-26.2C10,-27,19.9,-31.3,27.8,-28.9Z" width="100%" height="100%" transform="translate(50 50)" stroke-width="0" style="transition: all 0.3s ease 0s;" stroke="url(#sw-gradient)"></path>
              </svg>