<!--?xml version="1.0" standalone="no"?-->
              <svg id="sw-js-blob-svg" viewBox="0 0 100 100" xmlns="http://www.w3.org/2000/svg" version="1.1">
                    <defs> 
                        <linearGradient id="sw-gradient" x1="0" x2="1" y1="1" y2="0">
                            <stop id="stop1" stop-color="rgba(0, 54.436, 228.888, 1)" offset="0%"></stop>
                            <stop id="stop2" stop-color="rgba(31, 251, 60.965, 1)" offset="100%"></stop>
                        </linearGradient>
                    </defs>
                <path fill="url(#sw-gradient)" d="M16,-26.5C22.9,-23.8,32.2,-23.9,38.1,-19.9C43.9,-15.9,46.4,-8,44.3,-1.2C42.1,5.5,35.3,11,31.1,17.8C26.9,24.6,25.3,32.8,20.5,36.9C15.7,41.1,7.9,41.2,-0.2,41.5C-8.2,41.8,-16.5,42.3,-21.6,38.4C-26.8,34.5,-29,26.2,-32.9,19.1C-36.9,12,-42.6,6,-42.8,-0.1C-43.1,-6.3,-37.8,-12.5,-33.3,-18.7C-28.8,-24.8,-25,-30.8,-19.6,-34.4C-14.2,-38,-7.1,-39.1,-1.3,-36.9C4.6,-34.7,9.1,-29.2,16,-26.5Z" width="100%" height="100%" transform="translate(50 50)" stroke-width="0" style="transition: all 0.3s ease 0s;"></path>
              </svg>