<!--?xml version="1.0" standalone="no"?-->
              <svg id="sw-js-blob-svg" viewBox="0 0 100 100" xmlns="http://www.w3.org/2000/svg" version="1.1">
                    <defs> 
                        <linearGradient id="sw-gradient" x1="0" x2="1" y1="1" y2="0">
                            <stop id="stop1" stop-color="rgba(0, 54.436, 228.888, 1)" offset="0%"></stop>
                            <stop id="stop2" stop-color="rgba(31, 251, 60.965, 1)" offset="100%"></stop>
                        </linearGradient>
                    </defs>
                <path fill="url(#sw-gradient)" d="M14.2,-24.1C19.6,-21.5,25.9,-20.1,28.5,-16.2C31,-12.4,29.6,-6.2,30.5,0.5C31.4,7.2,34.5,14.5,33.5,20.9C32.5,27.3,27.3,32.8,21,37.5C14.8,42.2,7.4,46,1.2,44C-5.1,42,-10.1,34.1,-16.4,29.5C-22.7,24.8,-30.3,23.3,-34.7,18.9C-39,14.6,-40.2,7.3,-40.3,0C-40.3,-7.3,-39.2,-14.7,-34.4,-18.3C-29.6,-21.9,-21.1,-21.8,-14.7,-23.8C-8.4,-25.9,-4.2,-30,0.1,-30.2C4.4,-30.4,8.8,-26.6,14.2,-24.1Z" width="100%" height="100%" transform="translate(50 50)" stroke-width="0" style="transition: all 0.3s ease 0s;"></path>
              </svg>