<!--?xml version="1.0" standalone="no"?-->
              <svg id="sw-js-blob-svg" viewBox="0 0 100 100" xmlns="http://www.w3.org/2000/svg" version="1.1">
                    <defs> 
                        <linearGradient id="sw-gradient" x1="0" x2="1" y1="1" y2="0">
                            <stop id="stop1" stop-color="rgba(0, 164.301, 255, 1)" offset="0%"></stop>
                            <stop id="stop2" stop-color="rgba(94.838, 0, 255, 1)" offset="100%"></stop>
                        </linearGradient>
                    </defs>
                <path fill="url(#sw-gradient)" d="M22.3,-26.2C28.7,-21.1,33.7,-14,36.9,-5.1C40.1,3.7,41.5,14.3,37.9,23.1C34.2,31.9,25.5,39,16.3,40.6C7,42.2,-2.8,38.3,-10.1,33.3C-17.4,28.2,-22.4,22,-27.5,15C-32.7,8,-38.1,0.1,-37.3,-7C-36.5,-14.1,-29.6,-20.5,-22.3,-25.5C-15.1,-30.4,-7.5,-33.9,0.2,-34.1C7.9,-34.3,15.8,-31.3,22.3,-26.2Z" width="100%" height="100%" transform="translate(50 50)" stroke-width="0" style="transition: all 0.3s ease 0s;" stroke="url(#sw-gradient)"></path>
              </svg>