<!--?xml version="1.0" standalone="no"?-->
              <svg id="sw-js-blob-svg" viewBox="0 0 100 100" xmlns="http://www.w3.org/2000/svg" version="1.1">
                    <defs> 
                        <linearGradient id="sw-gradient" x1="0" x2="1" y1="1" y2="0">
                            <stop id="stop1" stop-color="rgba(0, 54.436, 228.888, 1)" offset="0%"></stop>
                            <stop id="stop2" stop-color="rgba(31, 251, 60.965, 1)" offset="100%"></stop>
                        </linearGradient>
                    </defs>
                <path fill="url(#sw-gradient)" d="M18.5,-22.7C23.9,-17.5,28.2,-11.6,29.9,-4.8C31.6,1.9,30.8,9.6,27.3,15.9C23.9,22.2,17.8,27.1,10.8,29.6C3.9,32.1,-3.9,32.2,-10.5,29.5C-17,26.8,-22.3,21.4,-25.2,15.2C-28.1,8.9,-28.5,1.9,-28.4,-6.1C-28.3,-14.2,-27.7,-23.3,-22.9,-28.6C-18.1,-33.8,-9.1,-35.3,-1.3,-33.8C6.5,-32.3,13.1,-27.8,18.5,-22.7Z" width="100%" height="100%" transform="translate(50 50)" stroke-width="0" style="transition: all 0.3s ease 0s;"></path>
              </svg>